# xmcd CD database file
#
# Track frame offsets:
#	150
#	14924
#	31305
#	44570
#	59711
#	73720
#	89580
#	105668
#	118063
#	133194
#
# Disc length: 1923 seconds
#
# Revision: 0
# Processed by: cddbd v1.5.2PL0 Copyright (c) Steve Scherf et al.
# Submitted via: CDex 1.70beta2
#
DISCID=9c07810a
DTITLE=Roy Heinrich and The Pickups - Smokey Night In A Bar
DYEAR=1999
DGENRE=Country
TTITLE0=How Would You Feel?
TTITLE1=Girl From Baltimor
TTITLE2=I'm Gonna Write Her A Letter
TTITLE3=Take Me Drunk
TTITLE4=Who Do You Think You Are?
TTITLE5=Heads You Win
TTITLE6=A Face In The Crowd
TTITLE7=Rebecca
TTITLE8=Take As Long As You Need
TTITLE9=I Wish My Life Was A Book
EXTD=YEAR: 1999
EXTT0=
EXTT1=
EXTT2=
EXTT3=
EXTT4=
EXTT5=
EXTT6=
EXTT7=
EXTT8=
EXTT9=
PLAYORDER=
